<svg xmlns="http://www.w3.org/2000/svg" xmlns:xlink="http://www.w3.org/1999/xlink" version="1.1" class="marks" width="547" height="195" viewBox="0 0 547 195"><rect width="547" height="195" fill="white"/><g fill="none" stroke-miterlimit="10" transform="translate(90,5)"><g class="mark-group role-frame root" role="graphics-object" aria-roledescription="group mark container"><g transform="translate(0,0)"><path class="background" aria-hidden="true" d="M0.5,0.5h300v150h-300Z" stroke="#ddd"/><g><g class="mark-group role-axis" role="graphics-symbol" aria-roledescription="axis" aria-label="X-axis for a linear scale with values from −14 to 6"><g transform="translate(0.5,150.5)"><path class="background" aria-hidden="true" d="M0,0h0v0h0Z" pointer-events="none"/><g><g class="mark-rule role-axis-grid" pointer-events="none"><line transform="translate(0,0)" x2="0" y2="-150" stroke="#ddd" stroke-width="1" opacity="1"/><line transform="translate(30,0)" x2="0" y2="-150" stroke="#ddd" stroke-width="1" opacity="1"/><line transform="translate(60,0)" x2="0" y2="-150" stroke="#ddd" stroke-width="1" opacity="1"/><line transform="translate(90,0)" x2="0" y2="-150" stroke="#ddd" stroke-width="1" opacity="1"/><line transform="translate(120,0)" x2="0" y2="-150" stroke="#ddd" stroke-width="1" opacity="1"/><line transform="translate(150,0)" x2="0" y2="-150" stroke="#ddd" stroke-width="1" opacity="1"/><line transform="translate(180,0)" x2="0" y2="-150" stroke="#ddd" stroke-width="1" opacity="1"/><line transform="translate(210,0)" x2="0" y2="-150" stroke="#ddd" stroke-width="1" opacity="1"/><line transform="translate(240,0)" x2="0" y2="-150" stroke="#ddd" stroke-width="1" opacity="1"/><line transform="translate(270,0)" x2="0" y2="-150" stroke="#ddd" stroke-width="1" opacity="1"/><line transform="translate(300,0)" x2="0" y2="-150" stroke="#ddd" stroke-width="1" opacity="1"/></g></g><path class="foreground" aria-hidden="true" d="" pointer-events="none" display="none"/></g></g><g class="mark-group role-axis" role="graphics-symbol" aria-roledescription="axis" aria-label="X-axis titled 'Coefficient of association (β) [CI]' for a linear scale with values from −14 to 6"><g transform="translate(0.5,150.5)"><path class="background" aria-hidden="true" d="M0,0h0v0h0Z" pointer-events="none"/><g><g class="mark-rule role-axis-tick" pointer-events="none"><line transform="translate(0,0)" x2="0" y2="5" stroke="#888" stroke-width="1" opacity="1"/><line transform="translate(30,0)" x2="0" y2="5" stroke="#888" stroke-width="1" opacity="1"/><line transform="translate(60,0)" x2="0" y2="5" stroke="#888" stroke-width="1" opacity="1"/><line transform="translate(90,0)" x2="0" y2="5" stroke="#888" stroke-width="1" opacity="1"/><line transform="translate(120,0)" x2="0" y2="5" stroke="#888" stroke-width="1" opacity="1"/><line transform="translate(150,0)" x2="0" y2="5" stroke="#888" stroke-width="1" opacity="1"/><line transform="translate(180,0)" x2="0" y2="5" stroke="#888" stroke-width="1" opacity="1"/><line transform="translate(210,0)" x2="0" y2="5" stroke="#888" stroke-width="1" opacity="1"/><line transform="translate(240,0)" x2="0" y2="5" stroke="#888" stroke-width="1" opacity="1"/><line transform="translate(270,0)" x2="0" y2="5" stroke="#888" stroke-width="1" opacity="1"/><line transform="translate(300,0)" x2="0" y2="5" stroke="#888" stroke-width="1" opacity="1"/></g><g class="mark-text role-axis-label" pointer-events="none"><text text-anchor="start" transform="translate(0,15)" font-family="sans-serif" font-size="10px" fill="#000" opacity="1">−14</text><text text-anchor="middle" transform="translate(30,15)" font-family="sans-serif" font-size="10px" fill="#000" opacity="1">−12</text><text text-anchor="middle" transform="translate(60,15)" font-family="sans-serif" font-size="10px" fill="#000" opacity="1">−10</text><text text-anchor="middle" transform="translate(90,15)" font-family="sans-serif" font-size="10px" fill="#000" opacity="1">−8</text><text text-anchor="middle" transform="translate(120,15)" font-family="sans-serif" font-size="10px" fill="#000" opacity="1">−6</text><text text-anchor="middle" transform="translate(150,15)" font-family="sans-serif" font-size="10px" fill="#000" opacity="1">−4</text><text text-anchor="middle" transform="translate(180,15)" font-family="sans-serif" font-size="10px" fill="#000" opacity="1">−2</text><text text-anchor="middle" transform="translate(210,15)" font-family="sans-serif" font-size="10px" fill="#000" opacity="1">0</text><text text-anchor="middle" transform="translate(240,15)" font-family="sans-serif" font-size="10px" fill="#000" opacity="1">2</text><text text-anchor="middle" transform="translate(270,15)" font-family="sans-serif" font-size="10px" fill="#000" opacity="1">4</text><text text-anchor="end" transform="translate(300,15)" font-family="sans-serif" font-size="10px" fill="#000" opacity="1">6</text></g><g class="mark-rule role-axis-domain" pointer-events="none"><line transform="translate(0,0)" x2="300" y2="0" stroke="#888" stroke-width="1" opacity="1"/></g><g class="mark-text role-axis-title" pointer-events="none"><text text-anchor="middle" transform="translate(150,32)" font-family="sans-serif" font-size="14px" font-weight="bold" fill="#000" opacity="1">Coefficient of association (β) [CI]</text></g></g><path class="foreground" aria-hidden="true" d="" pointer-events="none" display="none"/></g></g><g class="mark-group role-axis" role="graphics-symbol" aria-roledescription="axis" aria-label="Y-axis for a discrete scale with 7 values: DRB1*11:04, DPB1*10:01, DPB1*09:01, DRB1*13:03, DRB1*16:01, DRB1*13:01, DRB1*01:02"><g transform="translate(0.5,0.5)"><path class="background" aria-hidden="true" d="M0,0h0v0h0Z" pointer-events="none"/><g><g class="mark-rule role-axis-tick" pointer-events="none"><line transform="translate(0,10)" x2="-5" y2="0" stroke="#888" stroke-width="1" opacity="1"/><line transform="translate(0,32)" x2="-5" y2="0" stroke="#888" stroke-width="1" opacity="1"/><line transform="translate(0,53)" x2="-5" y2="0" stroke="#888" stroke-width="1" opacity="1"/><line transform="translate(0,74)" x2="-5" y2="0" stroke="#888" stroke-width="1" opacity="1"/><line transform="translate(0,96)" x2="-5" y2="0" stroke="#888" stroke-width="1" opacity="1"/><line transform="translate(0,117)" x2="-5" y2="0" stroke="#888" stroke-width="1" opacity="1"/><line transform="translate(0,139)" x2="-5" y2="0" stroke="#888" stroke-width="1" opacity="1"/></g><g class="mark-text role-axis-label" pointer-events="none"><text text-anchor="end" transform="translate(-7,14.214285714285714)" font-family="sans-serif" font-size="14px" fill="#000" opacity="1">DRB1*11:04</text><text text-anchor="end" transform="translate(-7,35.64285714285714)" font-family="sans-serif" font-size="14px" fill="#000" opacity="1">DPB1*10:01</text><text text-anchor="end" transform="translate(-7,57.07142857142857)" font-family="sans-serif" font-size="14px" fill="#000" opacity="1">DPB1*09:01</text><text text-anchor="end" transform="translate(-7,78.49999999999999)" font-family="sans-serif" font-size="14px" fill="#000" opacity="1">DRB1*13:03</text><text text-anchor="end" transform="translate(-7,99.92857142857142)" font-family="sans-serif" font-size="14px" fill="#000" opacity="1">DRB1*16:01</text><text text-anchor="end" transform="translate(-7,121.35714285714285)" font-family="sans-serif" font-size="14px" fill="#000" opacity="1">DRB1*13:01</text><text text-anchor="end" transform="translate(-7,142.78571428571428)" font-family="sans-serif" font-size="14px" fill="#000" opacity="1">DRB1*01:02</text></g><g class="mark-rule role-axis-domain" pointer-events="none"><line transform="translate(0,0)" x2="0" y2="150" stroke="#888" stroke-width="1" opacity="1"/></g></g><path class="foreground" aria-hidden="true" d="" pointer-events="none" display="none"/></g></g><g class="mark-rule role-mark layer_0_marks" role="graphics-symbol" aria-roledescription="rule mark container"><line transform="translate(3.0937500000000107,10.714285714285714)" x2="57.51749999999997" y2="0" stroke="black"/><line transform="translate(139.83375,32.14285714285714)" x2="30.689999999999998" y2="0" stroke="black"/><line transform="translate(148.875,53.57142857142857)" x2="28.882499999999993" y2="0" stroke="black"/><line transform="translate(149.64749999999998,74.99999999999999)" x2="28.458750000000038" y2="0" stroke="black"/><line transform="translate(151.4325,96.42857142857142)" x2="27.495000000000005" y2="0" stroke="black"/><line transform="translate(241.73624999999996,117.85714285714285)" x2="26.940000000000026" y2="0" stroke="black"/><line transform="translate(252.34125,139.28571428571428)" x2="26.39625000000001" y2="0" stroke="black"/></g><g class="mark-symbol role-mark layer_1_marks" role="graphics-symbol" aria-roledescription="symbol mark container"><path transform="translate(31.819874999999982,10.714285714285714)" d="M4.743416490252569,0A4.743416490252569,4.743416490252569,0,1,1,-4.743416490252569,0A4.743416490252569,4.743416490252569,0,1,1,4.743416490252569,0" fill="black" stroke-width="2" opacity="0.7"/><path transform="translate(155.18437500000002,32.14285714285714)" d="M4.743416490252569,0A4.743416490252569,4.743416490252569,0,1,1,-4.743416490252569,0A4.743416490252569,4.743416490252569,0,1,1,4.743416490252569,0" fill="black" stroke-width="2" opacity="0.7"/><path transform="translate(163.32525,53.57142857142857)" d="M4.743416490252569,0A4.743416490252569,4.743416490252569,0,1,1,-4.743416490252569,0A4.743416490252569,4.743416490252569,0,1,1,4.743416490252569,0" fill="black" stroke-width="2" opacity="0.7"/><path transform="translate(163.91324999999998,74.99999999999999)" d="M4.743416490252569,0A4.743416490252569,4.743416490252569,0,1,1,-4.743416490252569,0A4.743416490252569,4.743416490252569,0,1,1,4.743416490252569,0" fill="black" stroke-width="2" opacity="0.7"/><path transform="translate(165.26924999999997,96.42857142857142)" d="M-4.743416490252569,-4.743416490252569h9.486832980505138v9.486832980505138h-9.486832980505138Z" fill="black" stroke-width="2" opacity="0.7"/><path transform="translate(255.1995,117.85714285714285)" d="M4.743416490252569,0A4.743416490252569,4.743416490252569,0,1,1,-4.743416490252569,0A4.743416490252569,4.743416490252569,0,1,1,4.743416490252569,0" fill="black" stroke-width="2" opacity="0.7"/><path transform="translate(265.50374999999997,139.28571428571428)" d="M4.743416490252569,0A4.743416490252569,4.743416490252569,0,1,1,-4.743416490252569,0A4.743416490252569,4.743416490252569,0,1,1,4.743416490252569,0" fill="black" stroke-width="2" opacity="0.7"/></g><g class="mark-group role-legend" role="graphics-symbol" aria-roledescription="legend" aria-label="Symbol legend titled 'Significance Associaition' for shape with 2 values: BothTyping, OneTyping"><g transform="translate(318,0)"><path class="background" aria-hidden="true" d="M0,0h134v45h-134Z" pointer-events="none"/><g><g class="mark-group role-legend-entry"><g transform="translate(0,16)"><path class="background" aria-hidden="true" d="M0,0h0v0h0Z" pointer-events="none"/><g><g class="mark-group role-scope" role="graphics-object" aria-roledescription="group mark container"><g transform="translate(0,0)"><path class="background" aria-hidden="true" d="M0,0h66.0390625v12.5h-66.0390625Z" pointer-events="none" opacity="1"/><g><g class="mark-symbol role-legend-symbol" pointer-events="none"><path transform="translate(6,6)" d="M5,0A5,5,0,1,1,-5,0A5,5,0,1,1,5,0" fill="black" stroke-width="1.5" opacity="0.7"/></g><g class="mark-text role-legend-label" pointer-events="none"><text text-anchor="start" transform="translate(16,9)" font-family="sans-serif" font-size="10px" fill="#000" opacity="1">BothTyping</text></g></g><path class="foreground" aria-hidden="true" d="" pointer-events="none" display="none"/></g><g transform="translate(0,16)"><path class="background" aria-hidden="true" d="M0,0h66.0390625v12.5h-66.0390625Z" pointer-events="none" opacity="1"/><g><g class="mark-symbol role-legend-symbol" pointer-events="none"><path transform="translate(6,6)" d="M-5,-5h10v10h-10Z" fill="black" stroke-width="1.5" opacity="0.7"/></g><g class="mark-text role-legend-label" pointer-events="none"><text text-anchor="start" transform="translate(16,9)" font-family="sans-serif" font-size="10px" fill="#000" opacity="1">OneTyping</text></g></g><path class="foreground" aria-hidden="true" d="" pointer-events="none" display="none"/></g></g></g><path class="foreground" aria-hidden="true" d="" pointer-events="none" display="none"/></g></g><g class="mark-text role-legend-title" pointer-events="none"><text text-anchor="start" transform="translate(0,9)" font-family="sans-serif" font-size="11px" font-weight="bold" fill="#000" opacity="1">Significance Associaition</text></g></g><path class="foreground" aria-hidden="true" d="" pointer-events="none" display="none"/></g></g></g><path class="foreground" aria-hidden="true" d="" display="none"/></g></g></g></svg>