<svg xmlns="http://www.w3.org/2000/svg" xmlns:xlink="http://www.w3.org/1999/xlink" version="1.1" class="marks" width="556" height="507" viewBox="0 0 556 507"><rect width="556" height="507" fill="white"/><g fill="none" stroke-miterlimit="10" transform="translate(55,42)"><g class="mark-group role-frame root" role="graphics-object" aria-roledescription="group mark container"><g transform="translate(0,0)"><path class="background" aria-hidden="true" d="M0,0h0v0h0Z"/><g><g class="mark-group role-scope concat_0_group" role="graphics-object" aria-roledescription="group mark container"><g transform="translate(0,0)"><path class="background" aria-hidden="true" d="M0.5,0.5h400v120h-400Z" stroke="#ddd"/><g><g class="mark-rect role-mark concat_0_layer_0_marks" role="graphics-symbol" aria-roledescription="rect mark container"><path d="M5,85h10v10h-10Z" fill="rgb(150, 42, 120)"/><path d="M85,45h10v10h-10Z" fill="rgb(99, 173, 84)"/><path d="M205,85h10v10h-10Z" fill="rgb(58, 145, 42)"/><path d="M345,45h10v10h-10Z" fill="rgb(108, 180, 94)"/><path d="M365,5h10v10h-10Z" fill="rgb(199, 152, 185)"/><path d="M385,45h10v10h-10Z" fill="rgb(93, 169, 78)"/><path d="M385,5h10v10h-10Z" fill="rgb(102, 176, 87)"/></g><g class="mark-symbol role-mark concat_0_layer_1_marks" role="graphics-symbol" aria-roledescription="symbol mark container"><path transform="translate(30,50)" d="M7.574103723896884,0A7.574103723896884,7.574103723896884,0,1,1,-7.574103723896884,0A7.574103723896884,7.574103723896884,0,1,1,7.574103723896884,0" fill="rgb(58, 145, 42)" stroke-width="2" opacity="0.7"/><path transform="translate(30,70)" d="M6.609063744547414,0A6.609063744547414,6.609063744547414,0,1,1,-6.609063744547414,0A6.609063744547414,6.609063744547414,0,1,1,6.609063744547414,0" fill="rgb(58, 145, 42)" stroke-width="2" opacity="0.7"/><path transform="translate(30,30)" d="M7.819688719586309,0A7.819688719586309,7.819688719586309,0,1,1,-7.819688719586309,0A7.819688719586309,7.819688719586309,0,1,1,7.819688719586309,0" fill="rgb(58, 145, 42)" stroke-width="2" opacity="0.7"/><path transform="translate(50,70)" d="M7.008626914033383,0A7.008626914033383,7.008626914033383,0,1,1,-7.008626914033383,0A7.008626914033383,7.008626914033383,0,1,1,7.008626914033383,0" fill="rgb(58, 145, 42)" stroke-width="2" opacity="0.7"/><path transform="translate(70,30)" d="M6.826262805402382,0A6.826262805402382,6.826262805402382,0,1,1,-6.826262805402382,0A6.826262805402382,6.826262805402382,0,1,1,6.826262805402382,0" fill="rgb(103, 177, 88)" stroke-width="2" opacity="0.7"/><path transform="translate(110,10)" d="M6.785641640417647,0A6.785641640417647,6.785641640417647,0,1,1,-6.785641640417647,0A6.785641640417647,6.785641640417647,0,1,1,6.785641640417647,0" fill="rgb(194, 142, 179)" stroke-width="2" opacity="0.7"/><path transform="translate(130,50)" d="M7.5005465306232715,0A7.5005465306232715,7.5005465306232715,0,1,1,-7.5005465306232715,0A7.5005465306232715,7.5005465306232715,0,1,1,7.5005465306232715,0" fill="rgb(58, 145, 42)" stroke-width="2" opacity="0.7"/><path transform="translate(130,70)" d="M6.560565287220208,0A6.560565287220208,6.560565287220208,0,1,1,-6.560565287220208,0A6.560565287220208,6.560565287220208,0,1,1,6.560565287220208,0" fill="rgb(58, 145, 42)" stroke-width="2" opacity="0.7"/><path transform="translate(130,30)" d="M6.722610062505929,0A6.722610062505929,6.722610062505929,0,1,1,-6.722610062505929,0A6.722610062505929,6.722610062505929,0,1,1,6.722610062505929,0" fill="rgb(128, 195, 114)" stroke-width="2" opacity="0.7"/><path transform="translate(150,10)" d="M7.587360036031488,0A7.587360036031488,7.587360036031488,0,1,1,-7.587360036031488,0A7.587360036031488,7.587360036031488,0,1,1,7.587360036031488,0" fill="rgb(72, 154, 56)" stroke-width="2" opacity="0.7"/><path transform="translate(150,30)" d="M7.60000849416965,0A7.60000849416965,7.60000849416965,0,1,1,-7.60000849416965,0A7.60000849416965,7.60000849416965,0,1,1,7.60000849416965,0" fill="rgb(58, 145, 42)" stroke-width="2" opacity="0.7"/><path transform="translate(170,10)" d="M6.788320021875553,0A6.788320021875553,6.788320021875553,0,1,1,-6.788320021875553,0A6.788320021875553,6.788320021875553,0,1,1,6.788320021875553,0" fill="rgb(199, 153, 186)" stroke-width="2" opacity="0.7"/><path transform="translate(190,10)" d="M7.910230523847407,0A7.910230523847407,7.910230523847407,0,1,1,-7.910230523847407,0A7.910230523847407,7.910230523847407,0,1,1,7.910230523847407,0" fill="rgb(164, 76, 138)" stroke-width="2" opacity="0.7"/><path transform="translate(210,10)" d="M7.158428047306628,0A7.158428047306628,7.158428047306628,0,1,1,-7.158428047306628,0A7.158428047306628,7.158428047306628,0,1,1,7.158428047306628,0" fill="rgb(199, 152, 185)" stroke-width="2" opacity="0.7"/><path transform="translate(210,30)" d="M7.909193191518907,0A7.909193191518907,7.909193191518907,0,1,1,-7.909193191518907,0A7.909193191518907,7.909193191518907,0,1,1,7.909193191518907,0" fill="rgb(158, 62, 130)" stroke-width="2" opacity="0.7"/><path transform="translate(230,90)" d="M6.555379082955228,0A6.555379082955228,6.555379082955228,0,1,1,-6.555379082955228,0A6.555379082955228,6.555379082955228,0,1,1,6.555379082955228,0" fill="rgb(58, 145, 42)" stroke-width="2" opacity="0.7"/><path transform="translate(230,10)" d="M6.724537569869239,0A6.724537569869239,6.724537569869239,0,1,1,-6.724537569869239,0A6.724537569869239,6.724537569869239,0,1,1,6.724537569869239,0" fill="rgb(208, 172, 197)" stroke-width="2" opacity="0.7"/><path transform="translate(250,10)" d="M7.306548857914793,0A7.306548857914793,7.306548857914793,0,1,1,-7.306548857914793,0A7.306548857914793,7.306548857914793,0,1,1,7.306548857914793,0" fill="rgb(172, 92, 148)" stroke-width="2" opacity="0.7"/><path transform="translate(250,30)" d="M6.821293343507303,0A6.821293343507303,6.821293343507303,0,1,1,-6.821293343507303,0A6.821293343507303,6.821293343507303,0,1,1,6.821293343507303,0" fill="rgb(111, 183, 97)" stroke-width="2" opacity="0.7"/><path transform="translate(270,10)" d="M7.003373247082243,0A7.003373247082243,7.003373247082243,0,1,1,-7.003373247082243,0A7.003373247082243,7.003373247082243,0,1,1,7.003373247082243,0" fill="rgb(195, 142, 179)" stroke-width="2" opacity="0.7"/><path transform="translate(270,110)" d="M6.690725208695336,0A6.690725208695336,6.690725208695336,0,1,1,-6.690725208695336,0A6.690725208695336,6.690725208695336,0,1,1,6.690725208695336,0" fill="rgb(58, 145, 42)" stroke-width="2" opacity="0.7"/><path transform="translate(290,90)" d="M6.579834568523883,0A6.579834568523883,6.579834568523883,0,1,1,-6.579834568523883,0A6.579834568523883,6.579834568523883,0,1,1,6.579834568523883,0" fill="rgb(58, 145, 42)" stroke-width="2" opacity="0.7"/><path transform="translate(290,10)" d="M9.5,0A9.5,9.5,0,1,1,-9.5,0A9.5,9.5,0,1,1,9.5,0" fill="rgb(58, 145, 42)" stroke-width="2" opacity="0.7"/><path transform="translate(290,30)" d="M8.002888775052527,0A8.002888775052527,8.002888775052527,0,1,1,-8.002888775052527,0A8.002888775052527,8.002888775052527,0,1,1,8.002888775052527,0" fill="rgb(58, 145, 42)" stroke-width="2" opacity="0.7"/><path transform="translate(310,10)" d="M6.890307919053464,0A6.890307919053464,6.890307919053464,0,1,1,-6.890307919053464,0A6.890307919053464,6.890307919053464,0,1,1,6.890307919053464,0" fill="rgb(192, 136, 175)" stroke-width="2" opacity="0.7"/><path transform="translate(330,10)" d="M7.46242725747393,0A7.46242725747393,7.46242725747393,0,1,1,-7.46242725747393,0A7.46242725747393,7.46242725747393,0,1,1,7.46242725747393,0" fill="rgb(171, 90, 147)" stroke-width="2" opacity="0.7"/><path transform="translate(350,70)" d="M6.658634774718025,0A6.658634774718025,6.658634774718025,0,1,1,-6.658634774718025,0A6.658634774718025,6.658634774718025,0,1,1,6.658634774718025,0" fill="rgb(58, 145, 42)" stroke-width="2" opacity="0.7"/><path transform="translate(350,10)" d="M6.91293631653399,0A6.91293631653399,6.91293631653399,0,1,1,-6.91293631653399,0A6.91293631653399,6.91293631653399,0,1,1,6.91293631653399,0" fill="rgb(151, 213, 139)" stroke-width="2" opacity="0.7"/><path transform="translate(350,30)" d="M7.750065225533931,0A7.750065225533931,7.750065225533931,0,1,1,-7.750065225533931,0A7.750065225533931,7.750065225533931,0,1,1,7.750065225533931,0" fill="rgb(58, 145, 42)" stroke-width="2" opacity="0.7"/><path transform="translate(370,30)" d="M6.782813149451217,0A6.782813149451217,6.782813149451217,0,1,1,-6.782813149451217,0A6.782813149451217,6.782813149451217,0,1,1,6.782813149451217,0" fill="rgb(112, 184, 98)" stroke-width="2" opacity="0.7"/></g><g class="mark-group role-axis" role="graphics-symbol" aria-roledescription="axis" aria-label="X-axis for a discrete scale with 20 values: DPB1*04:02, DPB1*09:01, DPB1*10:01, DPB1*13:01, DPB1*17:01, ending with DRB1*16:01"><g transform="translate(0.5,120.5)"><path class="background" aria-hidden="true" d="M0,0h0v0h0Z" pointer-events="none"/><g><g class="mark-rule role-axis-tick" pointer-events="none"><line transform="translate(10,0)" x2="0" y2="5" stroke="#888" stroke-width="1" opacity="1"/><line transform="translate(30,0)" x2="0" y2="5" stroke="#888" stroke-width="1" opacity="1"/><line transform="translate(50,0)" x2="0" y2="5" stroke="#888" stroke-width="1" opacity="1"/><line transform="translate(70,0)" x2="0" y2="5" stroke="#888" stroke-width="1" opacity="1"/><line transform="translate(90,0)" x2="0" y2="5" stroke="#888" stroke-width="1" opacity="1"/><line transform="translate(110,0)" x2="0" y2="5" stroke="#888" stroke-width="1" opacity="1"/><line transform="translate(130,0)" x2="0" y2="5" stroke="#888" stroke-width="1" opacity="1"/><line transform="translate(150,0)" x2="0" y2="5" stroke="#888" stroke-width="1" opacity="1"/><line transform="translate(170,0)" x2="0" y2="5" stroke="#888" stroke-width="1" opacity="1"/><line transform="translate(190,0)" x2="0" y2="5" stroke="#888" stroke-width="1" opacity="1"/><line transform="translate(210,0)" x2="0" y2="5" stroke="#888" stroke-width="1" opacity="1"/><line transform="translate(230,0)" x2="0" y2="5" stroke="#888" stroke-width="1" opacity="1"/><line transform="translate(250,0)" x2="0" y2="5" stroke="#888" stroke-width="1" opacity="1"/><line transform="translate(270,0)" x2="0" y2="5" stroke="#888" stroke-width="1" opacity="1"/><line transform="translate(290,0)" x2="0" y2="5" stroke="#888" stroke-width="1" opacity="1"/><line transform="translate(310,0)" x2="0" y2="5" stroke="#888" stroke-width="1" opacity="1"/><line transform="translate(330,0)" x2="0" y2="5" stroke="#888" stroke-width="1" opacity="1"/><line transform="translate(350,0)" x2="0" y2="5" stroke="#888" stroke-width="1" opacity="1"/><line transform="translate(370,0)" x2="0" y2="5" stroke="#888" stroke-width="1" opacity="1"/><line transform="translate(390,0)" x2="0" y2="5" stroke="#888" stroke-width="1" opacity="1"/></g><g class="mark-text role-axis-label" pointer-events="none"><text text-anchor="end" transform="translate(9.5,7) rotate(270) translate(0,4)" font-family="sans-serif" font-size="12px" fill="#000" opacity="1">DPB1*04:02</text><text text-anchor="end" transform="translate(29.5,7) rotate(270) translate(0,4)" font-family="sans-serif" font-size="12px" fill="#000" opacity="1">DPB1*09:01</text><text text-anchor="end" transform="translate(49.5,7) rotate(270) translate(0,4)" font-family="sans-serif" font-size="12px" fill="#000" opacity="1">DPB1*10:01</text><text text-anchor="end" transform="translate(69.5,7) rotate(270) translate(0,4)" font-family="sans-serif" font-size="12px" fill="#000" opacity="1">DPB1*13:01</text><text text-anchor="end" transform="translate(89.5,7) rotate(270) translate(0,4)" font-family="sans-serif" font-size="12px" fill="#000" opacity="1">DPB1*17:01</text><text text-anchor="end" transform="translate(109.5,7) rotate(270) translate(0,4)" font-family="sans-serif" font-size="12px" fill="#000" opacity="1">DQA1*01:03</text><text text-anchor="end" transform="translate(129.5,7) rotate(270) translate(0,4)" font-family="sans-serif" font-size="12px" fill="#000" opacity="1">DQB1*03:03</text><text text-anchor="end" transform="translate(149.5,7) rotate(270) translate(0,4)" font-family="sans-serif" font-size="12px" fill="#000" opacity="1">DQB1*05:03</text><text text-anchor="end" transform="translate(169.5,7) rotate(270) translate(0,4)" font-family="sans-serif" font-size="12px" fill="#000" opacity="1">DQB1*06:03</text><text text-anchor="end" transform="translate(189.5,7) rotate(270) translate(0,4)" font-family="sans-serif" font-size="12px" fill="#000" opacity="1">DQB1*06:04</text><text text-anchor="end" transform="translate(209.5,7) rotate(270) translate(0,4)" font-family="sans-serif" font-size="12px" fill="#000" opacity="1">DRB1*01:02</text><text text-anchor="end" transform="translate(229.5,7) rotate(270) translate(0,4)" font-family="sans-serif" font-size="12px" fill="#000" opacity="1">DRB1*04:05</text><text text-anchor="end" transform="translate(249.5,7) rotate(270) translate(0,4)" font-family="sans-serif" font-size="12px" fill="#000" opacity="1">DRB1*08:04</text><text text-anchor="end" transform="translate(269.5,7) rotate(270) translate(0,4)" font-family="sans-serif" font-size="12px" fill="#000" opacity="1">DRB1*10:01</text><text text-anchor="end" transform="translate(289.5,7) rotate(270) translate(0,4)" font-family="sans-serif" font-size="12px" fill="#000" opacity="1">DRB1*11:04</text><text text-anchor="end" transform="translate(309.5,7) rotate(270) translate(0,4)" font-family="sans-serif" font-size="12px" fill="#000" opacity="1">DRB1*13:01</text><text text-anchor="end" transform="translate(329.5,7) rotate(270) translate(0,4)" font-family="sans-serif" font-size="12px" fill="#000" opacity="1">DRB1*13:02</text><text text-anchor="end" transform="translate(349.5,7) rotate(270) translate(0,4)" font-family="sans-serif" font-size="12px" fill="#000" opacity="1">DRB1*13:03</text><text text-anchor="end" transform="translate(369.5,7) rotate(270) translate(0,4)" font-family="sans-serif" font-size="12px" fill="#000" opacity="1">DRB1*15:02</text><text text-anchor="end" transform="translate(389.5,7) rotate(270) translate(0,4)" font-family="sans-serif" font-size="12px" fill="#000" opacity="1">DRB1*16:01</text></g><g class="mark-rule role-axis-domain" pointer-events="none"><line transform="translate(0,0)" x2="400" y2="0" stroke="#888" stroke-width="1" opacity="1"/></g></g><path class="foreground" aria-hidden="true" d="" pointer-events="none" display="none"/></g></g><g class="mark-group role-axis" role="graphics-symbol" aria-roledescription="axis" aria-label="Y-axis titled 'Association for single allergen panel' for a discrete scale with 6 values: phad, wx1, fx2, gx2, fx5, t20"><g transform="translate(0.5,0.5)"><path class="background" aria-hidden="true" d="M0,0h0v0h0Z" pointer-events="none"/><g><g class="mark-rule role-axis-tick" pointer-events="none"><line transform="translate(0,10)" x2="-5" y2="0" stroke="#888" stroke-width="1" opacity="1"/><line transform="translate(0,30)" x2="-5" y2="0" stroke="#888" stroke-width="1" opacity="1"/><line transform="translate(0,50)" x2="-5" y2="0" stroke="#888" stroke-width="1" opacity="1"/><line transform="translate(0,70)" x2="-5" y2="0" stroke="#888" stroke-width="1" opacity="1"/><line transform="translate(0,90)" x2="-5" y2="0" stroke="#888" stroke-width="1" opacity="1"/><line transform="translate(0,110)" x2="-5" y2="0" stroke="#888" stroke-width="1" opacity="1"/></g><g class="mark-text role-axis-label" pointer-events="none"><text text-anchor="end" transform="translate(-7,13.5)" font-family="sans-serif" font-size="12px" fill="#000" opacity="1">phad</text><text text-anchor="end" transform="translate(-7,33.5)" font-family="sans-serif" font-size="12px" fill="#000" opacity="1">wx1</text><text text-anchor="end" transform="translate(-7,53.5)" font-family="sans-serif" font-size="12px" fill="#000" opacity="1">fx2</text><text text-anchor="end" transform="translate(-7,73.5)" font-family="sans-serif" font-size="12px" fill="#000" opacity="1">gx2</text><text text-anchor="end" transform="translate(-7,93.5)" font-family="sans-serif" font-size="12px" fill="#000" opacity="1">fx5</text><text text-anchor="end" transform="translate(-7,113.5)" font-family="sans-serif" font-size="12px" fill="#000" opacity="1">t20</text></g><g class="mark-rule role-axis-domain" pointer-events="none"><line transform="translate(0,0)" x2="0" y2="120" stroke="#888" stroke-width="1" opacity="1"/></g><g class="mark-text role-axis-title" pointer-events="none"><text text-anchor="middle" transform="translate(-37.6953125,60) rotate(-90) translate(0,-2)" font-family="sans-serif" font-size="11px" font-weight="bold" fill="#000" opacity="1">Association for single allergen panel</text></g></g><path class="foreground" aria-hidden="true" d="" pointer-events="none" display="none"/></g></g></g><path class="foreground" aria-hidden="true" d="" display="none"/></g></g><g class="mark-group role-scope concat_1_group" role="graphics-object" aria-roledescription="group mark container"><g transform="translate(0,264)"><path class="background" aria-hidden="true" d="M0.5,0.5h400v120h-400Z" stroke="#ddd"/><g><g class="mark-rect role-mark concat_1_layer_0_marks" role="graphics-symbol" aria-roledescription="rect mark container"><path d="M6.111111111111111,5h10v10h-10Z" fill="rgb(58, 145, 42)"/><path d="M72.77777777777777,5h10v10h-10Z" fill="rgb(100, 174, 85)"/><path d="M206.11111111111111,5h10v10h-10Z" fill="rgb(58, 145, 42)"/><path d="M206.11111111111111,105h10v10h-10Z" fill="rgb(183, 118, 164)"/><path d="M294.99999999999994,105h10v10h-10Z" fill="rgb(170, 89, 146)"/><path d="M294.99999999999994,65h10v10h-10Z" fill="rgb(150, 42, 120)"/><path d="M294.99999999999994,45h10v10h-10Z" fill="rgb(58, 145, 42)"/><path d="M317.2222222222222,105h10v10h-10Z" fill="rgb(124, 192, 110)"/><path d="M317.2222222222222,45h10v10h-10Z" fill="rgb(58, 145, 42)"/></g><g class="mark-symbol role-mark concat_1_layer_1_marks" role="graphics-symbol" aria-roledescription="symbol mark container"><path transform="translate(33.33333333333333,10)" d="M4.895509228369973,0A4.895509228369973,4.895509228369973,0,1,1,-4.895509228369973,0A4.895509228369973,4.895509228369973,0,1,1,4.895509228369973,0" fill="rgb(58, 145, 42)" stroke-width="2" opacity="0.7"/><path transform="translate(33.33333333333333,50)" d="M5.121109686033598,0A5.121109686033598,5.121109686033598,0,1,1,-5.121109686033598,0A5.121109686033598,5.121109686033598,0,1,1,5.121109686033598,0" fill="rgb(58, 145, 42)" stroke-width="2" opacity="0.7"/><path transform="translate(55.55555555555556,50)" d="M4.6434276545644435,0A4.6434276545644435,4.6434276545644435,0,1,1,-4.6434276545644435,0A4.6434276545644435,4.6434276545644435,0,1,1,4.6434276545644435,0" fill="rgb(58, 145, 42)" stroke-width="2" opacity="0.7"/><path transform="translate(100,10)" d="M5.41360670593303,0A5.41360670593303,5.41360670593303,0,1,1,-5.41360670593303,0A5.41360670593303,5.41360670593303,0,1,1,5.41360670593303,0" fill="rgb(58, 145, 42)" stroke-width="2" opacity="0.7"/><path transform="translate(122.22222222222223,30)" d="M5.546557223110706,0A5.546557223110706,5.546557223110706,0,1,1,-5.546557223110706,0A5.546557223110706,5.546557223110706,0,1,1,5.546557223110706,0" fill="rgb(150, 42, 120)" stroke-width="2" opacity="0.7"/><path transform="translate(122.22222222222223,10)" d="M5.436796870588855,0A5.436796870588855,5.436796870588855,0,1,1,-5.436796870588855,0A5.436796870588855,5.436796870588855,0,1,1,5.436796870588855,0" fill="rgb(65, 149, 49)" stroke-width="2" opacity="0.7"/><path transform="translate(122.22222222222223,90)" d="M5.820744002493757,0A5.820744002493757,5.820744002493757,0,1,1,-5.820744002493757,0A5.820744002493757,5.820744002493757,0,1,1,5.820744002493757,0" fill="rgb(58, 145, 42)" stroke-width="2" opacity="0.7"/><path transform="translate(144.44444444444443,70)" d="M5.778001883497178,0A5.778001883497178,5.778001883497178,0,1,1,-5.778001883497178,0A5.778001883497178,5.778001883497178,0,1,1,5.778001883497178,0" fill="rgb(150, 42, 120)" stroke-width="2" opacity="0.7"/><path transform="translate(166.66666666666666,110)" d="M5.086312148409799,0A5.086312148409799,5.086312148409799,0,1,1,-5.086312148409799,0A5.086312148409799,5.086312148409799,0,1,1,5.086312148409799,0" fill="rgb(192, 137, 176)" stroke-width="2" opacity="0.7"/><path transform="translate(188.88888888888889,90)" d="M5.857246010864378,0A5.857246010864378,5.857246010864378,0,1,1,-5.857246010864378,0A5.857246010864378,5.857246010864378,0,1,1,5.857246010864378,0" fill="rgb(58, 145, 42)" stroke-width="2" opacity="0.7"/><path transform="translate(188.88888888888889,70)" d="M5.775198981241832,0A5.775198981241832,5.775198981241832,0,1,1,-5.775198981241832,0A5.775198981241832,5.775198981241832,0,1,1,5.775198981241832,0" fill="rgb(58, 145, 42)" stroke-width="2" opacity="0.7"/><path transform="translate(188.88888888888889,50)" d="M4.607369100073898,0A4.607369100073898,4.607369100073898,0,1,1,-4.607369100073898,0A4.607369100073898,4.607369100073898,0,1,1,4.607369100073898,0" fill="rgb(151, 45, 121)" stroke-width="2" opacity="0.7"/><path transform="translate(233.33333333333334,110)" d="M5.168560088682175,0A5.168560088682175,5.168560088682175,0,1,1,-5.168560088682175,0A5.168560088682175,5.168560088682175,0,1,1,5.168560088682175,0" fill="rgb(180, 111, 160)" stroke-width="2" opacity="0.7"/><path transform="translate(255.55555555555554,50)" d="M5.084203903027912,0A5.084203903027912,5.084203903027912,0,1,1,-5.084203903027912,0A5.084203903027912,5.084203903027912,0,1,1,5.084203903027912,0" fill="rgb(58, 145, 42)" stroke-width="2" opacity="0.7"/><path transform="translate(277.7777777777777,90)" d="M5.859537123926181,0A5.859537123926181,5.859537123926181,0,1,1,-5.859537123926181,0A5.859537123926181,5.859537123926181,0,1,1,5.859537123926181,0" fill="rgb(58, 145, 42)" stroke-width="2" opacity="0.7"/><path transform="translate(277.7777777777777,110)" d="M0,0" fill="rgb(58, 145, 42)" stroke-width="2" opacity="0.7"/><path transform="translate(277.7777777777777,50)" d="M5.622385532661356,0A5.622385532661356,5.622385532661356,0,1,1,-5.622385532661356,0A5.622385532661356,5.622385532661356,0,1,1,5.622385532661356,0" fill="rgb(58, 145, 42)" stroke-width="2" opacity="0.7"/><path transform="translate(322.2222222222222,90)" d="M5.673249616280919,0A5.673249616280919,5.673249616280919,0,1,1,-5.673249616280919,0A5.673249616280919,5.673249616280919,0,1,1,5.673249616280919,0" fill="rgb(58, 145, 42)" stroke-width="2" opacity="0.7"/><path transform="translate(344.4444444444444,10)" d="M5.776629137271533,0A5.776629137271533,5.776629137271533,0,1,1,-5.776629137271533,0A5.776629137271533,5.776629137271533,0,1,1,5.776629137271533,0" fill="rgb(58, 145, 42)" stroke-width="2" opacity="0.7"/><path transform="translate(366.66666666666663,110)" d="M4.950489817209787,0A4.950489817209787,4.950489817209787,0,1,1,-4.950489817209787,0A4.950489817209787,4.950489817209787,0,1,1,4.950489817209787,0" fill="rgb(107, 180, 93)" stroke-width="2" opacity="0.7"/><path transform="translate(388.88888888888886,10)" d="M5.626415285501587,0A5.626415285501587,5.626415285501587,0,1,1,-5.626415285501587,0A5.626415285501587,5.626415285501587,0,1,1,5.626415285501587,0" fill="rgb(58, 145, 42)" stroke-width="2" opacity="0.7"/></g><g class="mark-group role-axis" role="graphics-symbol" aria-roledescription="axis" aria-label="X-axis for a discrete scale with 18 values: DPB1*04:02, DPB1*09:01, DPB1*13:01, DPB1*17:01, DQB1*03:03, ending with DRB1*16:02"><g transform="translate(0.5,120.5)"><path class="background" aria-hidden="true" d="M0,0h0v0h0Z" pointer-events="none"/><g><g class="mark-rule role-axis-tick" pointer-events="none"><line transform="translate(11,0)" x2="0" y2="5" stroke="#888" stroke-width="1" opacity="1"/><line transform="translate(33,0)" x2="0" y2="5" stroke="#888" stroke-width="1" opacity="1"/><line transform="translate(55,0)" x2="0" y2="5" stroke="#888" stroke-width="1" opacity="1"/><line transform="translate(77,0)" x2="0" y2="5" stroke="#888" stroke-width="1" opacity="1"/><line transform="translate(100,0)" x2="0" y2="5" stroke="#888" stroke-width="1" opacity="1"/><line transform="translate(122,0)" x2="0" y2="5" stroke="#888" stroke-width="1" opacity="1"/><line transform="translate(144,0)" x2="0" y2="5" stroke="#888" stroke-width="1" opacity="1"/><line transform="translate(166,0)" x2="0" y2="5" stroke="#888" stroke-width="1" opacity="1"/><line transform="translate(188,0)" x2="0" y2="5" stroke="#888" stroke-width="1" opacity="1"/><line transform="translate(211,0)" x2="0" y2="5" stroke="#888" stroke-width="1" opacity="1"/><line transform="translate(233,0)" x2="0" y2="5" stroke="#888" stroke-width="1" opacity="1"/><line transform="translate(255,0)" x2="0" y2="5" stroke="#888" stroke-width="1" opacity="1"/><line transform="translate(277,0)" x2="0" y2="5" stroke="#888" stroke-width="1" opacity="1"/><line transform="translate(299,0)" x2="0" y2="5" stroke="#888" stroke-width="1" opacity="1"/><line transform="translate(322,0)" x2="0" y2="5" stroke="#888" stroke-width="1" opacity="1"/><line transform="translate(344,0)" x2="0" y2="5" stroke="#888" stroke-width="1" opacity="1"/><line transform="translate(366,0)" x2="0" y2="5" stroke="#888" stroke-width="1" opacity="1"/><line transform="translate(388,0)" x2="0" y2="5" stroke="#888" stroke-width="1" opacity="1"/></g><g class="mark-text role-axis-label" pointer-events="none"><text text-anchor="end" transform="translate(10.61111111111111,7) rotate(270) translate(0,4)" font-family="sans-serif" font-size="12px" fill="#000" opacity="1">DPB1*04:02</text><text text-anchor="end" transform="translate(32.83333333333333,7) rotate(270) translate(0,4)" font-family="sans-serif" font-size="12px" fill="#000" opacity="1">DPB1*09:01</text><text text-anchor="end" transform="translate(55.05555555555556,7) rotate(270) translate(0,4)" font-family="sans-serif" font-size="12px" fill="#000" opacity="1">DPB1*13:01</text><text text-anchor="end" transform="translate(77.27777777777777,7) rotate(270) translate(0,4)" font-family="sans-serif" font-size="12px" fill="#000" opacity="1">DPB1*17:01</text><text text-anchor="end" transform="translate(99.5,7) rotate(270) translate(0,4)" font-family="sans-serif" font-size="12px" fill="#000" opacity="1">DQB1*03:03</text><text text-anchor="end" transform="translate(121.72222222222223,7) rotate(270) translate(0,4)" font-family="sans-serif" font-size="12px" fill="#000" opacity="1">DQB1*06:02</text><text text-anchor="end" transform="translate(143.94444444444443,7) rotate(270) translate(0,4)" font-family="sans-serif" font-size="12px" fill="#000" opacity="1">DQB1*06:03</text><text text-anchor="end" transform="translate(166.16666666666666,7) rotate(270) translate(0,4)" font-family="sans-serif" font-size="12px" fill="#000" opacity="1">DQB1*06:04</text><text text-anchor="end" transform="translate(188.38888888888889,7) rotate(270) translate(0,4)" font-family="sans-serif" font-size="12px" fill="#000" opacity="1">DRB1*01:02</text><text text-anchor="end" transform="translate(210.61111111111111,7) rotate(270) translate(0,4)" font-family="sans-serif" font-size="12px" fill="#000" opacity="1">DRB1*08:04</text><text text-anchor="end" transform="translate(232.83333333333334,7) rotate(270) translate(0,4)" font-family="sans-serif" font-size="12px" fill="#000" opacity="1">DRB1*10:01</text><text text-anchor="end" transform="translate(255.05555555555554,7) rotate(270) translate(0,4)" font-family="sans-serif" font-size="12px" fill="#000" opacity="1">DRB1*11:01</text><text text-anchor="end" transform="translate(277.2777777777777,7) rotate(270) translate(0,4)" font-family="sans-serif" font-size="12px" fill="#000" opacity="1">DRB1*11:04</text><text text-anchor="end" transform="translate(299.49999999999994,7) rotate(270) translate(0,4)" font-family="sans-serif" font-size="12px" fill="#000" opacity="1">DRB1*13:02</text><text text-anchor="end" transform="translate(321.7222222222222,7) rotate(270) translate(0,4)" font-family="sans-serif" font-size="12px" fill="#000" opacity="1">DRB1*13:03</text><text text-anchor="end" transform="translate(343.9444444444444,7) rotate(270) translate(0,4)" font-family="sans-serif" font-size="12px" fill="#000" opacity="1">DRB1*15:03</text><text text-anchor="end" transform="translate(366.16666666666663,7) rotate(270) translate(0,4)" font-family="sans-serif" font-size="12px" fill="#000" opacity="1">DRB1*16:01</text><text text-anchor="end" transform="translate(388.38888888888886,7) rotate(270) translate(0,4)" font-family="sans-serif" font-size="12px" fill="#000" opacity="1">DRB1*16:02</text></g><g class="mark-rule role-axis-domain" pointer-events="none"><line transform="translate(0,0)" x2="400" y2="0" stroke="#888" stroke-width="1" opacity="1"/></g></g><path class="foreground" aria-hidden="true" d="" pointer-events="none" display="none"/></g></g><g class="mark-group role-axis" role="graphics-symbol" aria-roledescription="axis" aria-label="Y-axis titled 'Association for combined allergen panel' for a discrete scale with 6 values: fx2, fx1, wx1, t20, fx5, phad"><g transform="translate(0.5,0.5)"><path class="background" aria-hidden="true" d="M0,0h0v0h0Z" pointer-events="none"/><g><g class="mark-rule role-axis-tick" pointer-events="none"><line transform="translate(0,10)" x2="-5" y2="0" stroke="#888" stroke-width="1" opacity="1"/><line transform="translate(0,30)" x2="-5" y2="0" stroke="#888" stroke-width="1" opacity="1"/><line transform="translate(0,50)" x2="-5" y2="0" stroke="#888" stroke-width="1" opacity="1"/><line transform="translate(0,70)" x2="-5" y2="0" stroke="#888" stroke-width="1" opacity="1"/><line transform="translate(0,90)" x2="-5" y2="0" stroke="#888" stroke-width="1" opacity="1"/><line transform="translate(0,110)" x2="-5" y2="0" stroke="#888" stroke-width="1" opacity="1"/></g><g class="mark-text role-axis-label" pointer-events="none"><text text-anchor="end" transform="translate(-7,13.5)" font-family="sans-serif" font-size="12px" fill="#000" opacity="1">fx2</text><text text-anchor="end" transform="translate(-7,33.5)" font-family="sans-serif" font-size="12px" fill="#000" opacity="1">fx1</text><text text-anchor="end" transform="translate(-7,53.5)" font-family="sans-serif" font-size="12px" fill="#000" opacity="1">wx1</text><text text-anchor="end" transform="translate(-7,73.5)" font-family="sans-serif" font-size="12px" fill="#000" opacity="1">t20</text><text text-anchor="end" transform="translate(-7,93.5)" font-family="sans-serif" font-size="12px" fill="#000" opacity="1">fx5</text><text text-anchor="end" transform="translate(-7,113.5)" font-family="sans-serif" font-size="12px" fill="#000" opacity="1">phad</text></g><g class="mark-rule role-axis-domain" pointer-events="none"><line transform="translate(0,0)" x2="0" y2="120" stroke="#888" stroke-width="1" opacity="1"/></g><g class="mark-text role-axis-title" pointer-events="none"><text text-anchor="middle" transform="translate(-37.6953125,60) rotate(-90) translate(0,-2)" font-family="sans-serif" font-size="11px" font-weight="bold" fill="#000" opacity="1">Association for combined allergen panel</text></g></g><path class="foreground" aria-hidden="true" d="" pointer-events="none" display="none"/></g></g></g><path class="foreground" aria-hidden="true" d="" display="none"/></g></g><g class="mark-group role-legend" role="graphics-symbol" aria-roledescription="legend" aria-label="Gradient legend titled 'β' for fill color with values from −2 to 2"><g transform="translate(419,0)"><path class="background" aria-hidden="true" d="M0,0h30v137h-30Z" pointer-events="none"/><g><g class="mark-group role-legend-entry"><g transform="translate(0,17)"><path class="background" aria-hidden="true" d="M0,0h0v0h0Z" pointer-events="none"/><g><g class="mark-rect role-legend-gradient" pointer-events="none"><path d="M0,0h16v120h-16Z" fill="url(#gradient_0)" stroke="#ddd" stroke-width="0" opacity="0.7"/></g><g class="mark-text role-legend-label" pointer-events="none"><text text-anchor="start" transform="translate(18,118)" font-family="sans-serif" font-size="10px" fill="#000" opacity="1">−2</text><text text-anchor="start" transform="translate(18,63)" font-family="sans-serif" font-size="10px" fill="#000" opacity="1">0</text><text text-anchor="start" transform="translate(18,8)" font-family="sans-serif" font-size="10px" fill="#000" opacity="1">2</text></g></g><path class="foreground" aria-hidden="true" d="" pointer-events="none" display="none"/></g></g><g class="mark-text role-legend-title" pointer-events="none"><text text-anchor="start" transform="translate(0,9)" font-family="sans-serif" font-size="12px" font-weight="bold" fill="#000" opacity="1">β</text></g></g><path class="foreground" aria-hidden="true" d="" pointer-events="none" display="none"/></g></g><g class="mark-group role-legend" role="graphics-symbol" aria-roledescription="legend" aria-label="Symbol legend titled '-Log(P-value)' for size with values from −32 to 44"><g transform="translate(419,145)"><path class="background" aria-hidden="true" d="M0,0h77v72h-77Z" pointer-events="none"/><g><g class="mark-group role-legend-entry"><g transform="translate(0,17)"><path class="background" aria-hidden="true" d="M0,0h0v0h0Z" pointer-events="none"/><g><g class="mark-group role-scope" role="graphics-object" aria-roledescription="group mark container"><g transform="translate(0,0)"><path class="background" aria-hidden="true" d="M0,0h31.123046875v15.461121483265483h-31.123046875Z" pointer-events="none" opacity="1"/><g><g class="mark-symbol role-legend-symbol" pointer-events="none"><path transform="translate(8,7.5)" d="M6.461121483265484,0A6.461121483265484,6.461121483265484,0,1,1,-6.461121483265484,0A6.461121483265484,6.461121483265484,0,1,1,6.461121483265484,0" fill="black" fill-opacity="0.7" stroke-width="1.5" opacity="0.7"/></g><g class="mark-text role-legend-label" pointer-events="none"><text text-anchor="start" transform="translate(20,10.5)" font-family="sans-serif" font-size="10px" fill="#000" opacity="1">3</text></g></g><path class="foreground" aria-hidden="true" d="" pointer-events="none" display="none"/></g><g transform="translate(0,19)"><path class="background" aria-hidden="true" d="M0,0h31.123046875v15.643484460927255h-31.123046875Z" pointer-events="none" opacity="1"/><g><g class="mark-symbol role-legend-symbol" pointer-events="none"><path transform="translate(8,7.5)" d="M6.643484460927252,0A6.643484460927252,6.643484460927252,0,1,1,-6.643484460927252,0A6.643484460927252,6.643484460927252,0,1,1,6.643484460927252,0" fill="black" fill-opacity="0.7" stroke-width="1.5" opacity="0.7"/></g><g class="mark-text role-legend-label" pointer-events="none"><text text-anchor="start" transform="translate(20,10.5)" font-family="sans-serif" font-size="10px" fill="#000" opacity="1">5</text></g></g><path class="foreground" aria-hidden="true" d="" pointer-events="none" display="none"/></g><g transform="translate(0,38)"><path class="background" aria-hidden="true" d="M0,0h31.123046875v16.57886807231563h-31.123046875Z" pointer-events="none" opacity="1"/><g><g class="mark-symbol role-legend-symbol" pointer-events="none"><path transform="translate(8,8)" d="M7.078868072315628,0A7.078868072315628,7.078868072315628,0,1,1,-7.078868072315628,0A7.078868072315628,7.078868072315628,0,1,1,7.078868072315628,0" fill="black" fill-opacity="0.7" stroke-width="1.5" opacity="0.7"/></g><g class="mark-text role-legend-label" pointer-events="none"><text text-anchor="start" transform="translate(20,11)" font-family="sans-serif" font-size="10px" fill="#000" opacity="1">10</text></g></g><path class="foreground" aria-hidden="true" d="" pointer-events="none" display="none"/></g></g></g><path class="foreground" aria-hidden="true" d="" pointer-events="none" display="none"/></g></g><g class="mark-text role-legend-title" pointer-events="none"><text text-anchor="start" transform="translate(0,9)" font-family="sans-serif" font-size="12px" font-weight="bold" fill="#000" opacity="1">-Log(P-value)</text></g></g><path class="foreground" aria-hidden="true" d="" pointer-events="none" display="none"/></g></g></g><path class="foreground" aria-hidden="true" d="" display="none"/></g></g></g><defs><linearGradient id="gradient_0" x1="0" x2="0" y1="1" y2="0"><stop offset="0" stop-color="rgb(58, 145, 42)"/><stop offset="0.04999999999999999" stop-color="rgb(81, 160, 65)"/><stop offset="0.09999999999999998" stop-color="rgb(102, 176, 87)"/><stop offset="0.15000000000000002" stop-color="rgb(123, 191, 109)"/><stop offset="0.2" stop-color="rgb(143, 207, 131)"/><stop offset="0.25" stop-color="rgb(164, 223, 153)"/><stop offset="0.3" stop-color="rgb(181, 228, 172)"/><stop offset="0.35" stop-color="rgb(198, 233, 190)"/><stop offset="0.4" stop-color="rgb(215, 238, 209)"/><stop offset="0.45" stop-color="rgb(231, 242, 228)"/><stop offset="0.5" stop-color="rgb(247, 247, 247)"/><stop offset="0.55" stop-color="rgb(240, 235, 239)"/><stop offset="0.6" stop-color="rgb(234, 222, 230)"/><stop offset="0.65" stop-color="rgb(227, 210, 222)"/><stop offset="0.7" stop-color="rgb(221, 198, 214)"/><stop offset="0.75" stop-color="rgb(214, 186, 206)"/><stop offset="0.8" stop-color="rgb(202, 159, 189)"/><stop offset="0.85" stop-color="rgb(190, 131, 172)"/><stop offset="0.9" stop-color="rgb(177, 104, 155)"/><stop offset="0.95" stop-color="rgb(164, 75, 138)"/><stop offset="1" stop-color="rgb(150, 42, 120)"/></linearGradient></defs></svg>