<svg xmlns="http://www.w3.org/2000/svg" xmlns:xlink="http://www.w3.org/1999/xlink" version="1.1" class="marks" width="548" height="195" viewBox="0 0 548 195"><rect width="548" height="195" fill="white"/><g fill="none" stroke-miterlimit="10" transform="translate(91,5)"><g class="mark-group role-frame root" role="graphics-object" aria-roledescription="group mark container"><g transform="translate(0,0)"><path class="background" aria-hidden="true" d="M0.5,0.5h300v150h-300Z" stroke="#ddd"/><g><g class="mark-group role-axis" role="graphics-symbol" aria-roledescription="axis" aria-label="X-axis for a linear scale with values from −9 to 5"><g transform="translate(0.5,150.5)"><path class="background" aria-hidden="true" d="M0,0h0v0h0Z" pointer-events="none"/><g><g class="mark-rule role-axis-grid" pointer-events="none"><line transform="translate(21,0)" x2="0" y2="-150" stroke="#ddd" stroke-width="1" opacity="1"/><line transform="translate(64,0)" x2="0" y2="-150" stroke="#ddd" stroke-width="1" opacity="1"/><line transform="translate(107,0)" x2="0" y2="-150" stroke="#ddd" stroke-width="1" opacity="1"/><line transform="translate(150,0)" x2="0" y2="-150" stroke="#ddd" stroke-width="1" opacity="1"/><line transform="translate(193,0)" x2="0" y2="-150" stroke="#ddd" stroke-width="1" opacity="1"/><line transform="translate(236,0)" x2="0" y2="-150" stroke="#ddd" stroke-width="1" opacity="1"/><line transform="translate(279,0)" x2="0" y2="-150" stroke="#ddd" stroke-width="1" opacity="1"/></g></g><path class="foreground" aria-hidden="true" d="" pointer-events="none" display="none"/></g></g><g class="mark-group role-axis" role="graphics-symbol" aria-roledescription="axis" aria-label="X-axis titled 'Coefficient of association (β) [CI]' for a linear scale with values from −9 to 5"><g transform="translate(0.5,150.5)"><path class="background" aria-hidden="true" d="M0,0h0v0h0Z" pointer-events="none"/><g><g class="mark-rule role-axis-tick" pointer-events="none"><line transform="translate(21,0)" x2="0" y2="5" stroke="#888" stroke-width="1" opacity="1"/><line transform="translate(64,0)" x2="0" y2="5" stroke="#888" stroke-width="1" opacity="1"/><line transform="translate(107,0)" x2="0" y2="5" stroke="#888" stroke-width="1" opacity="1"/><line transform="translate(150,0)" x2="0" y2="5" stroke="#888" stroke-width="1" opacity="1"/><line transform="translate(193,0)" x2="0" y2="5" stroke="#888" stroke-width="1" opacity="1"/><line transform="translate(236,0)" x2="0" y2="5" stroke="#888" stroke-width="1" opacity="1"/><line transform="translate(279,0)" x2="0" y2="5" stroke="#888" stroke-width="1" opacity="1"/></g><g class="mark-text role-axis-label" pointer-events="none"><text text-anchor="middle" transform="translate(21.428571428571427,15)" font-family="sans-serif" font-size="10px" fill="#000" opacity="1">−8</text><text text-anchor="middle" transform="translate(64.28571428571428,15)" font-family="sans-serif" font-size="10px" fill="#000" opacity="1">−6</text><text text-anchor="middle" transform="translate(107.14285714285714,15)" font-family="sans-serif" font-size="10px" fill="#000" opacity="1">−4</text><text text-anchor="middle" transform="translate(150,15)" font-family="sans-serif" font-size="10px" fill="#000" opacity="1">−2</text><text text-anchor="middle" transform="translate(192.85714285714286,15)" font-family="sans-serif" font-size="10px" fill="#000" opacity="1">0</text><text text-anchor="middle" transform="translate(235.71428571428572,15)" font-family="sans-serif" font-size="10px" fill="#000" opacity="1">2</text><text text-anchor="middle" transform="translate(278.57142857142856,15)" font-family="sans-serif" font-size="10px" fill="#000" opacity="1">4</text></g><g class="mark-rule role-axis-domain" pointer-events="none"><line transform="translate(0,0)" x2="300" y2="0" stroke="#888" stroke-width="1" opacity="1"/></g><g class="mark-text role-axis-title" pointer-events="none"><text text-anchor="middle" transform="translate(150,32)" font-family="sans-serif" font-size="14px" font-weight="bold" fill="#000" opacity="1">Coefficient of association (β) [CI]</text></g></g><path class="foreground" aria-hidden="true" d="" pointer-events="none" display="none"/></g></g><g class="mark-group role-axis" role="graphics-symbol" aria-roledescription="axis" aria-label="Y-axis for a discrete scale with 6 values: DRB1*11:04, DPB1*10:01, DRB1*16:01, DRB1*13:03, DQB1*06:04, DRB1*01:02"><g transform="translate(0.5,0.5)"><path class="background" aria-hidden="true" d="M0,0h0v0h0Z" pointer-events="none"/><g><g class="mark-rule role-axis-tick" pointer-events="none"><line transform="translate(0,12)" x2="-5" y2="0" stroke="#888" stroke-width="1" opacity="1"/><line transform="translate(0,37)" x2="-5" y2="0" stroke="#888" stroke-width="1" opacity="1"/><line transform="translate(0,62)" x2="-5" y2="0" stroke="#888" stroke-width="1" opacity="1"/><line transform="translate(0,87)" x2="-5" y2="0" stroke="#888" stroke-width="1" opacity="1"/><line transform="translate(0,112)" x2="-5" y2="0" stroke="#888" stroke-width="1" opacity="1"/><line transform="translate(0,137)" x2="-5" y2="0" stroke="#888" stroke-width="1" opacity="1"/></g><g class="mark-text role-axis-label" pointer-events="none"><text text-anchor="end" transform="translate(-7,16)" font-family="sans-serif" font-size="14px" fill="#000" opacity="1">DRB1*11:04</text><text text-anchor="end" transform="translate(-7,41)" font-family="sans-serif" font-size="14px" fill="#000" opacity="1">DPB1*10:01</text><text text-anchor="end" transform="translate(-7,66)" font-family="sans-serif" font-size="14px" fill="#000" opacity="1">DRB1*16:01</text><text text-anchor="end" transform="translate(-7,91)" font-family="sans-serif" font-size="14px" fill="#000" opacity="1">DRB1*13:03</text><text text-anchor="end" transform="translate(-7,116)" font-family="sans-serif" font-size="14px" fill="#000" opacity="1">DQB1*06:04</text><text text-anchor="end" transform="translate(-7,141)" font-family="sans-serif" font-size="14px" fill="#000" opacity="1">DRB1*01:02</text></g><g class="mark-rule role-axis-domain" pointer-events="none"><line transform="translate(0,0)" x2="0" y2="150" stroke="#888" stroke-width="1" opacity="1"/></g></g><path class="foreground" aria-hidden="true" d="" pointer-events="none" display="none"/></g></g><g class="mark-rule role-mark layer_0_marks" role="graphics-symbol" aria-roledescription="rule mark container"><line transform="translate(7.2589285714285925,12.5)" x2="56.69999999999998" y2="0" stroke="black"/><line transform="translate(75.38035714285715,37.5)" x2="45.78214285714286" y2="0" stroke="black"/><line transform="translate(107.18035714285716,62.5)" x2="38.99999999999997" y2="0" stroke="black"/><line transform="translate(116.66785714285713,87.5)" x2="37.66607142857147" y2="0" stroke="black"/><line transform="translate(232.27500000000003,112.5)" x2="34.75714285714281" y2="0" stroke="black"/><line transform="translate(257.1375,137.5)" x2="37.48392857142858" y2="0" stroke="black"/></g><g class="mark-symbol role-mark layer_1_marks" role="graphics-symbol" aria-roledescription="symbol mark container"><path transform="translate(35.69089285714286,12.5)" d="M4.743416490252569,0A4.743416490252569,4.743416490252569,0,1,1,-4.743416490252569,0A4.743416490252569,4.743416490252569,0,1,1,4.743416490252569,0" fill="black" stroke-width="2" opacity="0.7"/><path transform="translate(98.28107142857141,37.5)" d="M4.743416490252569,0A4.743416490252569,4.743416490252569,0,1,1,-4.743416490252569,0A4.743416490252569,4.743416490252569,0,1,1,4.743416490252569,0" fill="black" stroke-width="2" opacity="0.7"/><path transform="translate(126.60107142857143,62.5)" d="M4.743416490252569,0A4.743416490252569,4.743416490252569,0,1,1,-4.743416490252569,0A4.743416490252569,4.743416490252569,0,1,1,4.743416490252569,0" fill="black" stroke-width="2" opacity="0.7"/><path transform="translate(135.53089285714287,87.5)" d="M-4.743416490252569,-4.743416490252569h9.486832980505138v9.486832980505138h-9.486832980505138Z" fill="black" stroke-width="2" opacity="0.7"/><path transform="translate(249.57696428571427,112.5)" d="M4.743416490252569,0A4.743416490252569,4.743416490252569,0,1,1,-4.743416490252569,0A4.743416490252569,4.743416490252569,0,1,1,4.743416490252569,0" fill="black" stroke-width="2" opacity="0.7"/><path transform="translate(275.86071428571427,137.5)" d="M4.743416490252569,0A4.743416490252569,4.743416490252569,0,1,1,-4.743416490252569,0A4.743416490252569,4.743416490252569,0,1,1,4.743416490252569,0" fill="black" stroke-width="2" opacity="0.7"/></g><g class="mark-group role-legend" role="graphics-symbol" aria-roledescription="legend" aria-label="Symbol legend titled 'Significance Associaition' for shape with 2 values: BothTyping, OneTyping"><g transform="translate(318,0)"><path class="background" aria-hidden="true" d="M0,0h134v45h-134Z" pointer-events="none"/><g><g class="mark-group role-legend-entry"><g transform="translate(0,16)"><path class="background" aria-hidden="true" d="M0,0h0v0h0Z" pointer-events="none"/><g><g class="mark-group role-scope" role="graphics-object" aria-roledescription="group mark container"><g transform="translate(0,0)"><path class="background" aria-hidden="true" d="M0,0h66.0390625v12.5h-66.0390625Z" pointer-events="none" opacity="1"/><g><g class="mark-symbol role-legend-symbol" pointer-events="none"><path transform="translate(6,6)" d="M5,0A5,5,0,1,1,-5,0A5,5,0,1,1,5,0" fill="black" stroke-width="1.5" opacity="0.7"/></g><g class="mark-text role-legend-label" pointer-events="none"><text text-anchor="start" transform="translate(16,9)" font-family="sans-serif" font-size="10px" fill="#000" opacity="1">BothTyping</text></g></g><path class="foreground" aria-hidden="true" d="" pointer-events="none" display="none"/></g><g transform="translate(0,16)"><path class="background" aria-hidden="true" d="M0,0h66.0390625v12.5h-66.0390625Z" pointer-events="none" opacity="1"/><g><g class="mark-symbol role-legend-symbol" pointer-events="none"><path transform="translate(6,6)" d="M-5,-5h10v10h-10Z" fill="black" stroke-width="1.5" opacity="0.7"/></g><g class="mark-text role-legend-label" pointer-events="none"><text text-anchor="start" transform="translate(16,9)" font-family="sans-serif" font-size="10px" fill="#000" opacity="1">OneTyping</text></g></g><path class="foreground" aria-hidden="true" d="" pointer-events="none" display="none"/></g></g></g><path class="foreground" aria-hidden="true" d="" pointer-events="none" display="none"/></g></g><g class="mark-text role-legend-title" pointer-events="none"><text text-anchor="start" transform="translate(0,9)" font-family="sans-serif" font-size="11px" font-weight="bold" fill="#000" opacity="1">Significance Associaition</text></g></g><path class="foreground" aria-hidden="true" d="" pointer-events="none" display="none"/></g></g></g><path class="foreground" aria-hidden="true" d="" display="none"/></g></g></g></svg>