<svg xmlns="http://www.w3.org/2000/svg" xmlns:xlink="http://www.w3.org/1999/xlink" version="1.1" class="marks" width="494" height="212" viewBox="0 0 494 212"><rect width="494" height="212" fill="white"/><g fill="none" stroke-miterlimit="10" transform="translate(55,5)"><g class="mark-group role-frame root" role="graphics-object" aria-roledescription="group mark container"><g transform="translate(0,0)"><path class="background" aria-hidden="true" d="M0.5,0.5h340v120h-340Z" stroke="#ddd"/><g><g class="mark-rect role-mark layer_0_marks" role="graphics-object" aria-roledescription="rect mark container"><path aria-label="coef: 2.46275; allele: DPB1*04:02; Typing: HLA-PRG; nlog10_Pval: 8.83899271515; allergenP: fx5" role="graphics-symbol" aria-roledescription="rect mark" d="M0,80h20v20h-20Z" fill="rgb(150, 42, 120)"/><path aria-label="coef: −1.5394; allele: DPB1*10:01; Typing: HLA-HD; nlog10_Pval: 4.73977292011; allergenP: fx2" role="graphics-symbol" aria-roledescription="rect mark" d="M40,0h20v20h-20Z" fill="rgb(108, 181, 94)"/><path aria-label="coef: −1.75455; allele: DPB1*17:01; Typing: HLA-HD; nlog10_Pval: 7.66370327399; allergenP: fx2" role="graphics-symbol" aria-roledescription="rect mark" d="M80,0h20v20h-20Z" fill="rgb(86, 164, 70)"/><path aria-label="coef: −4.6298; allele: DQB1*03:03; Typing: HLA-PRG; nlog10_Pval: 15.4227620388; allergenP: fx2" role="graphics-symbol" aria-roledescription="rect mark" d="M100,0h20v20h-20Z" fill="rgb(58, 145, 42)"/><path aria-label="coef: −1.6372; allele: DRB1*13:03; Typing: HLA-HD; nlog10_Pval: 7.18139137207; allergenP: fx2" role="graphics-symbol" aria-roledescription="rect mark" d="M260,0h20v20h-20Z" fill="rgb(98, 173, 83)"/><path aria-label="coef: −2.622; allele: DRB1*13:03; Typing: HLA-PRG; nlog10_Pval: 5.55957525968; allergenP: fx5" role="graphics-symbol" aria-roledescription="rect mark" d="M260,80h20v20h-20Z" fill="rgb(58, 145, 42)"/><path aria-label="coef: −2.0591; allele: DRB1*13:03; Typing: HLA-PRG; nlog10_Pval: 4.51655164688; allergenP: t20" role="graphics-symbol" aria-roledescription="rect mark" d="M260,60h20v20h-20Z" fill="rgb(58, 145, 42)"/><path aria-label="coef: −4.85845; allele: DRB1*15:03; Typing: HLA-PRG; nlog10_Pval: 15.4509838389; allergenP: fx2" role="graphics-symbol" aria-roledescription="rect mark" d="M300,0h20v20h-20Z" fill="rgb(58, 145, 42)"/><path aria-label="coef: −1.8354; allele: DRB1*16:01; Typing: HLA-HD; nlog10_Pval: 6.14511274477; allergenP: fx2" role="graphics-symbol" aria-roledescription="rect mark" d="M320,0h20v20h-20Z" fill="rgb(77, 158, 61)"/></g><g class="mark-symbol role-mark layer_1_marks" role="graphics-object" aria-roledescription="symbol mark container"><path aria-label="coef: −3.11095; nlog10_Pval: 17.2709265974; allele: DPB1*09:01; allergenP: fx2" role="graphics-symbol" aria-roledescription="point" transform="translate(30,10)" d="M6.789233694694125,0A6.789233694694125,6.789233694694125,0,1,1,-6.789233694694125,0A6.789233694694125,6.789233694694125,0,1,1,6.789233694694125,0" fill="rgb(58, 145, 42)" stroke-width="2" opacity="0.7"/><path aria-label="coef: −2.576; nlog10_Pval: 6.16879404056; allele: DPB1*09:01; allergenP: gx2" role="graphics-symbol" aria-roledescription="point" transform="translate(30,110)" d="M4.057542467870593,0A4.057542467870593,4.057542467870593,0,1,1,-4.057542467870593,0A4.057542467870593,4.057542467870593,0,1,1,4.057542467870593,0" fill="rgb(58, 145, 42)" stroke-width="2" opacity="0.7"/><path aria-label="coef: −2.7462; nlog10_Pval: 21.4247528574; allele: DPB1*09:01; allergenP: wx1" role="graphics-symbol" aria-roledescription="point" transform="translate(30,50)" d="M7.561724477841785,0A7.561724477841785,7.561724477841785,0,1,1,-7.561724477841785,0A7.561724477841785,7.561724477841785,0,1,1,7.561724477841785,0" fill="rgb(58, 145, 42)" stroke-width="2" opacity="0.7"/><path aria-label="coef: −2.62575; nlog10_Pval: 7.59042047243; allele: DPB1*10:01; allergenP: fx5" role="graphics-symbol" aria-roledescription="point" transform="translate(50,90)" d="M4.5008636436296445,0A4.5008636436296445,4.5008636436296445,0,1,1,-4.5008636436296445,0A4.5008636436296445,4.5008636436296445,0,1,1,4.5008636436296445,0" fill="rgb(58, 145, 42)" stroke-width="2" opacity="0.7"/><path aria-label="coef: −2.389; nlog10_Pval: 9.08693805365; allele: DPB1*10:01; allergenP: gx2" role="graphics-symbol" aria-roledescription="point" transform="translate(50,110)" d="M4.924608637287187,0A4.924608637287187,4.924608637287187,0,1,1,-4.924608637287187,0A4.924608637287187,4.924608637287187,0,1,1,4.924608637287187,0" fill="rgb(58, 145, 42)" stroke-width="2" opacity="0.7"/><path aria-label="coef: −1.64265; nlog10_Pval: 7.65507897081; allele: DPB1*13:01; allergenP: wx1" role="graphics-symbol" aria-roledescription="point" transform="translate(70,50)" d="M4.519993147368891,0A4.519993147368891,4.519993147368891,0,1,1,-4.519993147368891,0A4.519993147368891,4.519993147368891,0,1,1,4.519993147368891,0" fill="rgb(97, 172, 83)" stroke-width="2" opacity="0.7"/><path aria-label="coef: −2.3884; nlog10_Pval: 6.17822687571; allele: DQB1*03:03; allergenP: gx2" role="graphics-symbol" aria-roledescription="point" transform="translate(110,110)" d="M4.060643520418312,0A4.060643520418312,4.060643520418312,0,1,1,-4.060643520418312,0A4.060643520418312,4.060643520418312,0,1,1,4.060643520418312,0" fill="rgb(58, 145, 42)" stroke-width="2" opacity="0.7"/><path aria-label="coef: −1.4888; nlog10_Pval: 7.70557986103; allele: DQB1*03:03; allergenP: wx1" role="graphics-symbol" aria-roledescription="point" transform="translate(110,50)" d="M4.534877934899718,0A4.534877934899718,4.534877934899718,0,1,1,-4.534877934899718,0A4.534877934899718,4.534877934899718,0,1,1,4.534877934899718,0" fill="rgb(113, 184, 99)" stroke-width="2" opacity="0.7"/><path aria-label="coef: −3.4885; nlog10_Pval: 17.6072184259; allele: DQB1*05:03; allergenP: wx1" role="graphics-symbol" aria-roledescription="point" transform="translate(130,50)" d="M6.8550135044281335,0A6.8550135044281335,6.8550135044281335,0,1,1,-6.8550135044281335,0A6.8550135044281335,6.8550135044281335,0,1,1,6.8550135044281335,0" fill="rgb(58, 145, 42)" stroke-width="2" opacity="0.7"/><path aria-label="coef: 1.94485; nlog10_Pval: 24.8037119699; allele: DQB1*06:04; allergenP: phad" role="graphics-symbol" aria-roledescription="point" transform="translate(150,30)" d="M8.136193683594687,0A8.136193683594687,8.136193683594687,0,1,1,-8.136193683594687,0A8.136193683594687,8.136193683594687,0,1,1,8.136193683594687,0" fill="rgb(154, 52, 125)" stroke-width="2" opacity="0.7"/><path aria-label="coef: −2.8369; nlog10_Pval: 6.35117060858; allele: DRB1*01:02; allergenP: fx5" role="graphics-symbol" aria-roledescription="point" transform="translate(170,90)" d="M4.117084951874624,0A4.117084951874624,4.117084951874624,0,1,1,-4.117084951874624,0A4.117084951874624,4.117084951874624,0,1,1,4.117084951874624,0" fill="rgb(58, 145, 42)" stroke-width="2" opacity="0.7"/><path aria-label="coef: 1.14875; nlog10_Pval: 9.16215847311; allele: DRB1*01:02; allergenP: phad" role="graphics-symbol" aria-roledescription="point" transform="translate(170,30)" d="M4.944949245273007,0A4.944949245273007,4.944949245273007,0,1,1,-4.944949245273007,0A4.944949245273007,4.944949245273007,0,1,1,4.944949245273007,0" fill="rgb(205, 166, 194)" stroke-width="2" opacity="0.7"/><path aria-label="coef: 1.7469; nlog10_Pval: 17.5371174745; allele: DRB1*01:02; allergenP: wx1" role="graphics-symbol" aria-roledescription="point" transform="translate(170,50)" d="M6.841353702619356,0A6.841353702619356,6.841353702619356,0,1,1,-6.841353702619356,0A6.841353702619356,6.841353702619356,0,1,1,6.841353702619356,0" fill="rgb(167, 83, 142)" stroke-width="2" opacity="0.7"/><path aria-label="coef: 2.0094; nlog10_Pval: 17.2619501797; allele: DRB1*08:04; allergenP: phad" role="graphics-symbol" aria-roledescription="point" transform="translate(190,30)" d="M6.787469142062422,0A6.787469142062422,6.787469142062422,0,1,1,-6.787469142062422,0A6.787469142062422,6.787469142062422,0,1,1,6.787469142062422,0" fill="rgb(150, 42, 120)" stroke-width="2" opacity="0.7"/><path aria-label="coef: −1.61845; nlog10_Pval: 8.61355245852; allele: DRB1*08:04; allergenP: wx1" role="graphics-symbol" aria-roledescription="point" transform="translate(190,50)" d="M4.79461886955069,0A4.79461886955069,4.79461886955069,0,1,1,-4.79461886955069,0A4.79461886955069,4.79461886955069,0,1,1,4.79461886955069,0" fill="rgb(100, 174, 85)" stroke-width="2" opacity="0.7"/><path aria-label="coef: 1.60055; nlog10_Pval: 14.3378522228; allele: DRB1*10:01; allergenP: phad" role="graphics-symbol" aria-roledescription="point" transform="translate(210,30)" d="M6.185929821532984,0A6.185929821532984,6.185929821532984,0,1,1,-6.185929821532984,0A6.185929821532984,6.185929821532984,0,1,1,6.185929821532984,0" fill="rgb(177, 104, 155)" stroke-width="2" opacity="0.7"/><path aria-label="coef: −5.231; nlog10_Pval: 6.12936607941; allele: DRB1*10:01; allergenP: t20" role="graphics-symbol" aria-roledescription="point" transform="translate(210,70)" d="M4.044554752953626,0A4.044554752953626,4.044554752953626,0,1,1,-4.044554752953626,0A4.044554752953626,4.044554752953626,0,1,1,4.044554752953626,0" fill="rgb(58, 145, 42)" stroke-width="2" opacity="0.7"/><path aria-label="coef: −2.50055; nlog10_Pval: 33.8159297878; allele: DRB1*11:04; allergenP: phad" role="graphics-symbol" aria-roledescription="point" transform="translate(230,30)" d="M9.5,0A9.5,9.5,0,1,1,-9.5,0A9.5,9.5,0,1,1,9.5,0" fill="rgb(58, 145, 42)" stroke-width="2" opacity="0.7"/><path aria-label="coef: −2.48345; nlog10_Pval: 18.155842624; allele: DRB1*11:04; allergenP: wx1" role="graphics-symbol" aria-roledescription="point" transform="translate(230,50)" d="M6.960992142589854,0A6.960992142589854,6.960992142589854,0,1,1,-6.960992142589854,0A6.960992142589854,6.960992142589854,0,1,1,6.960992142589854,0" fill="rgb(58, 145, 42)" stroke-width="2" opacity="0.7"/><path aria-label="coef: 1.4984; nlog10_Pval: 12.8868545053; allele: DRB1*13:02; allergenP: phad" role="graphics-symbol" aria-roledescription="point" transform="translate(250,30)" d="M5.86457306480157,0A5.86457306480157,5.86457306480157,0,1,1,-5.86457306480157,0A5.86457306480157,5.86457306480157,0,1,1,5.86457306480157,0" fill="rgb(183, 118, 164)" stroke-width="2" opacity="0.7"/><path aria-label="coef: −3.3577; nlog10_Pval: 6.69195765054; allele: DRB1*13:03; allergenP: gx2" role="graphics-symbol" aria-roledescription="point" transform="translate(270,110)" d="M4.226097677929886,0A4.226097677929886,4.226097677929886,0,1,1,-4.226097677929886,0A4.226097677929886,4.226097677929886,0,1,1,4.226097677929886,0" fill="rgb(58, 145, 42)" stroke-width="2" opacity="0.7"/><path aria-label="coef: −2.4287; nlog10_Pval: 18.909077824; allele: DRB1*13:03; allergenP: wx1" role="graphics-symbol" aria-roledescription="point" transform="translate(270,50)" d="M7.103920839769478,0A7.103920839769478,7.103920839769478,0,1,1,-7.103920839769478,0A7.103920839769478,7.103920839769478,0,1,1,7.103920839769478,0" fill="rgb(58, 145, 42)" stroke-width="2" opacity="0.7"/><path aria-label="coef: −1.6546; nlog10_Pval: 9.28769168713; allele: DRB1*15:02; allergenP: wx1" role="graphics-symbol" aria-roledescription="point" transform="translate(290,50)" d="M4.978710041498521,0A4.978710041498521,4.978710041498521,0,1,1,-4.978710041498521,0A4.978710041498521,4.978710041498521,0,1,1,4.978710041498521,0" fill="rgb(96, 172, 81)" stroke-width="2" opacity="0.7"/><path aria-label="coef: −1.40745; nlog10_Pval: 10.6380738058; allele: DRB1*15:03; allergenP: phad" role="graphics-symbol" aria-roledescription="point" transform="translate(310,30)" d="M5.328370783112925,0A5.328370783112925,5.328370783112925,0,1,1,-5.328370783112925,0A5.328370783112925,5.328370783112925,0,1,1,5.328370783112925,0" fill="rgb(122, 191, 108)" stroke-width="2" opacity="0.7"/><path aria-label="coef: −1.6527; nlog10_Pval: 12.122321153; allele: DRB1*16:01; allergenP: phad" role="graphics-symbol" aria-roledescription="point" transform="translate(330,30)" d="M5.687950804218792,0A5.687950804218792,5.687950804218792,0,1,1,-5.687950804218792,0A5.687950804218792,5.687950804218792,0,1,1,5.687950804218792,0" fill="rgb(96, 172, 81)" stroke-width="2" opacity="0.7"/></g><g class="mark-group role-legend" role="graphics-symbol" aria-roledescription="legend" aria-label="Gradient legend titled 'β' for fill color with values from −2 to 2"><g transform="translate(358,0)"><path class="background" aria-hidden="true" d="M0,0h30v137h-30Z" pointer-events="none"/><g><g class="mark-group role-legend-entry"><g transform="translate(0,17)"><path class="background" aria-hidden="true" d="M0,0h0v0h0Z" pointer-events="none"/><g><g class="mark-rect role-legend-gradient" pointer-events="none"><path d="M0,0h16v120h-16Z" fill="url(#gradient_0)" stroke="#ddd" stroke-width="0" opacity="0.7"/></g><g class="mark-text role-legend-label" pointer-events="none"><text text-anchor="start" transform="translate(18,118)" font-family="sans-serif" font-size="10px" fill="#000" opacity="1">−2</text><text text-anchor="start" transform="translate(18,63)" font-family="sans-serif" font-size="10px" fill="#000" opacity="1">0</text><text text-anchor="start" transform="translate(18,8)" font-family="sans-serif" font-size="10px" fill="#000" opacity="1">2</text></g></g><path class="foreground" aria-hidden="true" d="" pointer-events="none" display="none"/></g></g><g class="mark-text role-legend-title" pointer-events="none"><text text-anchor="start" transform="translate(0,9)" font-family="sans-serif" font-size="12px" font-weight="bold" fill="#000" opacity="1">β</text></g></g><path class="foreground" aria-hidden="true" d="" pointer-events="none" display="none"/></g></g><g class="mark-group role-legend" role="graphics-symbol" aria-roledescription="legend" aria-label="Symbol legend titled '-Log(P-value)' for size with values from 0 to 34"><g transform="translate(358,145)"><path class="background" aria-hidden="true" d="M0,0h76v57h-76Z" pointer-events="none"/><g><g class="mark-group role-legend-entry"><g transform="translate(0,17)"><path class="background" aria-hidden="true" d="M0,0h0v0h0Z" pointer-events="none"/><g><g class="mark-group role-scope" role="graphics-object" aria-roledescription="group mark container"><g transform="translate(0,0)"><path class="background" aria-hidden="true" d="M0,0h28v10h-28Z" pointer-events="none" opacity="1"/><g><g class="mark-symbol role-legend-symbol" pointer-events="none"><path transform="translate(6,5)" d="M2.8295903526396162,0A2.8295903526396162,2.8295903526396162,0,1,1,-2.8295903526396162,0A2.8295903526396162,2.8295903526396162,0,1,1,2.8295903526396162,0" fill="black" fill-opacity="0.7" stroke-width="1.5" opacity="0.7"/></g><g class="mark-text role-legend-label" pointer-events="none"><text text-anchor="start" transform="translate(16,8)" font-family="sans-serif" font-size="10px" fill="#000" opacity="1">3</text></g></g><path class="foreground" aria-hidden="true" d="" pointer-events="none" display="none"/></g><g transform="translate(0,13)"><path class="background" aria-hidden="true" d="M0,0h28v10.152985437454134h-28Z" pointer-events="none" opacity="1"/><g><g class="mark-symbol role-legend-symbol" pointer-events="none"><path transform="translate(6,5)" d="M3.6529854374541353,0A3.6529854374541353,3.6529854374541353,0,1,1,-3.6529854374541353,0A3.6529854374541353,3.6529854374541353,0,1,1,3.6529854374541353,0" fill="black" fill-opacity="0.7" stroke-width="1.5" opacity="0.7"/></g><g class="mark-text role-legend-label" pointer-events="none"><text text-anchor="start" transform="translate(16,8)" font-family="sans-serif" font-size="10px" fill="#000" opacity="1">5</text></g></g><path class="foreground" aria-hidden="true" d="" pointer-events="none" display="none"/></g><g transform="translate(0,27)"><path class="background" aria-hidden="true" d="M0,0h28v12.666101548799048h-28Z" pointer-events="none" opacity="1"/><g><g class="mark-symbol role-legend-symbol" pointer-events="none"><path transform="translate(6,6)" d="M5.166101548799052,0A5.166101548799052,5.166101548799052,0,1,1,-5.166101548799052,0A5.166101548799052,5.166101548799052,0,1,1,5.166101548799052,0" fill="black" fill-opacity="0.7" stroke-width="1.5" opacity="0.7"/></g><g class="mark-text role-legend-label" pointer-events="none"><text text-anchor="start" transform="translate(16,9)" font-family="sans-serif" font-size="10px" fill="#000" opacity="1">10</text></g></g><path class="foreground" aria-hidden="true" d="" pointer-events="none" display="none"/></g></g></g><path class="foreground" aria-hidden="true" d="" pointer-events="none" display="none"/></g></g><g class="mark-text role-legend-title" pointer-events="none"><text text-anchor="start" transform="translate(0,9)" font-family="sans-serif" font-size="12px" font-weight="bold" fill="#000" opacity="1">-Log(P-value)</text></g></g><path class="foreground" aria-hidden="true" d="" pointer-events="none" display="none"/></g></g><g class="mark-group role-axis" role="graphics-symbol" aria-roledescription="axis" aria-label="X-axis for a discrete scale with 17 values: DPB1*04:02, DPB1*09:01, DPB1*10:01, DPB1*13:01, DPB1*17:01, ending with DRB1*16:01"><g transform="translate(0.5,120.5)"><path class="background" aria-hidden="true" d="M0,0h0v0h0Z" pointer-events="none"/><g><g class="mark-rule role-axis-tick" pointer-events="none"><line transform="translate(10,0)" x2="0" y2="5" stroke="#888" stroke-width="1" opacity="1"/><line transform="translate(30,0)" x2="0" y2="5" stroke="#888" stroke-width="1" opacity="1"/><line transform="translate(50,0)" x2="0" y2="5" stroke="#888" stroke-width="1" opacity="1"/><line transform="translate(70,0)" x2="0" y2="5" stroke="#888" stroke-width="1" opacity="1"/><line transform="translate(90,0)" x2="0" y2="5" stroke="#888" stroke-width="1" opacity="1"/><line transform="translate(110,0)" x2="0" y2="5" stroke="#888" stroke-width="1" opacity="1"/><line transform="translate(130,0)" x2="0" y2="5" stroke="#888" stroke-width="1" opacity="1"/><line transform="translate(150,0)" x2="0" y2="5" stroke="#888" stroke-width="1" opacity="1"/><line transform="translate(170,0)" x2="0" y2="5" stroke="#888" stroke-width="1" opacity="1"/><line transform="translate(190,0)" x2="0" y2="5" stroke="#888" stroke-width="1" opacity="1"/><line transform="translate(210,0)" x2="0" y2="5" stroke="#888" stroke-width="1" opacity="1"/><line transform="translate(230,0)" x2="0" y2="5" stroke="#888" stroke-width="1" opacity="1"/><line transform="translate(250,0)" x2="0" y2="5" stroke="#888" stroke-width="1" opacity="1"/><line transform="translate(270,0)" x2="0" y2="5" stroke="#888" stroke-width="1" opacity="1"/><line transform="translate(290,0)" x2="0" y2="5" stroke="#888" stroke-width="1" opacity="1"/><line transform="translate(310,0)" x2="0" y2="5" stroke="#888" stroke-width="1" opacity="1"/><line transform="translate(330,0)" x2="0" y2="5" stroke="#888" stroke-width="1" opacity="1"/></g><g class="mark-text role-axis-label" pointer-events="none"><text text-anchor="end" transform="translate(9.5,7) rotate(270) translate(0,4)" font-family="sans-serif" font-size="12px" fill="#000" opacity="1">DPB1*04:02</text><text text-anchor="end" transform="translate(29.5,7) rotate(270) translate(0,4)" font-family="sans-serif" font-size="12px" fill="#000" opacity="1">DPB1*09:01</text><text text-anchor="end" transform="translate(49.5,7) rotate(270) translate(0,4)" font-family="sans-serif" font-size="12px" fill="#000" opacity="1">DPB1*10:01</text><text text-anchor="end" transform="translate(69.5,7) rotate(270) translate(0,4)" font-family="sans-serif" font-size="12px" fill="#000" opacity="1">DPB1*13:01</text><text text-anchor="end" transform="translate(89.5,7) rotate(270) translate(0,4)" font-family="sans-serif" font-size="12px" fill="#000" opacity="1">DPB1*17:01</text><text text-anchor="end" transform="translate(109.5,7) rotate(270) translate(0,4)" font-family="sans-serif" font-size="12px" fill="#000" opacity="1">DQB1*03:03</text><text text-anchor="end" transform="translate(129.5,7) rotate(270) translate(0,4)" font-family="sans-serif" font-size="12px" fill="#000" opacity="1">DQB1*05:03</text><text text-anchor="end" transform="translate(149.5,7) rotate(270) translate(0,4)" font-family="sans-serif" font-size="12px" fill="#000" opacity="1">DQB1*06:04</text><text text-anchor="end" transform="translate(169.5,7) rotate(270) translate(0,4)" font-family="sans-serif" font-size="12px" fill="#000" opacity="1">DRB1*01:02</text><text text-anchor="end" transform="translate(189.5,7) rotate(270) translate(0,4)" font-family="sans-serif" font-size="12px" fill="#000" opacity="1">DRB1*08:04</text><text text-anchor="end" transform="translate(209.5,7) rotate(270) translate(0,4)" font-family="sans-serif" font-size="12px" fill="#000" opacity="1">DRB1*10:01</text><text text-anchor="end" transform="translate(229.5,7) rotate(270) translate(0,4)" font-family="sans-serif" font-size="12px" fill="#000" opacity="1">DRB1*11:04</text><text text-anchor="end" transform="translate(249.5,7) rotate(270) translate(0,4)" font-family="sans-serif" font-size="12px" fill="#000" opacity="1">DRB1*13:02</text><text text-anchor="end" transform="translate(269.5,7) rotate(270) translate(0,4)" font-family="sans-serif" font-size="12px" fill="#000" opacity="1">DRB1*13:03</text><text text-anchor="end" transform="translate(289.5,7) rotate(270) translate(0,4)" font-family="sans-serif" font-size="12px" fill="#000" opacity="1">DRB1*15:02</text><text text-anchor="end" transform="translate(309.5,7) rotate(270) translate(0,4)" font-family="sans-serif" font-size="12px" fill="#000" opacity="1">DRB1*15:03</text><text text-anchor="end" transform="translate(329.5,7) rotate(270) translate(0,4)" font-family="sans-serif" font-size="12px" fill="#000" opacity="1">DRB1*16:01</text></g><g class="mark-rule role-axis-domain" pointer-events="none"><line transform="translate(0,0)" x2="340" y2="0" stroke="#888" stroke-width="1" opacity="1"/></g></g><path class="foreground" aria-hidden="true" d="" pointer-events="none" display="none"/></g></g><g class="mark-group role-axis" role="graphics-symbol" aria-roledescription="axis" aria-label="Y-axis titled 'Allergen Panel' for a discrete scale with 6 values: fx2, phad, wx1, t20, fx5, gx2"><g transform="translate(0.5,0.5)"><path class="background" aria-hidden="true" d="M0,0h0v0h0Z" pointer-events="none"/><g><g class="mark-rule role-axis-tick" pointer-events="none"><line transform="translate(0,10)" x2="-5" y2="0" stroke="#888" stroke-width="1" opacity="1"/><line transform="translate(0,30)" x2="-5" y2="0" stroke="#888" stroke-width="1" opacity="1"/><line transform="translate(0,50)" x2="-5" y2="0" stroke="#888" stroke-width="1" opacity="1"/><line transform="translate(0,70)" x2="-5" y2="0" stroke="#888" stroke-width="1" opacity="1"/><line transform="translate(0,90)" x2="-5" y2="0" stroke="#888" stroke-width="1" opacity="1"/><line transform="translate(0,110)" x2="-5" y2="0" stroke="#888" stroke-width="1" opacity="1"/></g><g class="mark-text role-axis-label" pointer-events="none"><text text-anchor="end" transform="translate(-7,13.5)" font-family="sans-serif" font-size="12px" fill="#000" opacity="1">fx2</text><text text-anchor="end" transform="translate(-7,33.5)" font-family="sans-serif" font-size="12px" fill="#000" opacity="1">phad</text><text text-anchor="end" transform="translate(-7,53.5)" font-family="sans-serif" font-size="12px" fill="#000" opacity="1">wx1</text><text text-anchor="end" transform="translate(-7,73.5)" font-family="sans-serif" font-size="12px" fill="#000" opacity="1">t20</text><text text-anchor="end" transform="translate(-7,93.5)" font-family="sans-serif" font-size="12px" fill="#000" opacity="1">fx5</text><text text-anchor="end" transform="translate(-7,113.5)" font-family="sans-serif" font-size="12px" fill="#000" opacity="1">gx2</text></g><g class="mark-rule role-axis-domain" pointer-events="none"><line transform="translate(0,0)" x2="0" y2="120" stroke="#888" stroke-width="1" opacity="1"/></g><g class="mark-text role-axis-title" pointer-events="none"><text text-anchor="middle" transform="translate(-39,60) rotate(-90) translate(0,-2)" font-family="sans-serif" font-size="11px" font-weight="bold" fill="#000" opacity="1">Allergen Panel</text></g></g><path class="foreground" aria-hidden="true" d="" pointer-events="none" display="none"/></g></g></g><path class="foreground" aria-hidden="true" d="" display="none"/></g></g></g><defs><linearGradient id="gradient_0" x1="0" x2="0" y1="1" y2="0"><stop offset="0" stop-color="rgb(58, 145, 42)"/><stop offset="0.04999999999999999" stop-color="rgb(81, 160, 65)"/><stop offset="0.09999999999999998" stop-color="rgb(102, 176, 87)"/><stop offset="0.15000000000000002" stop-color="rgb(123, 191, 109)"/><stop offset="0.2" stop-color="rgb(143, 207, 131)"/><stop offset="0.25" stop-color="rgb(164, 223, 153)"/><stop offset="0.3" stop-color="rgb(181, 228, 172)"/><stop offset="0.35" stop-color="rgb(198, 233, 190)"/><stop offset="0.4" stop-color="rgb(215, 238, 209)"/><stop offset="0.45" stop-color="rgb(231, 242, 228)"/><stop offset="0.5" stop-color="rgb(247, 247, 247)"/><stop offset="0.55" stop-color="rgb(240, 235, 239)"/><stop offset="0.6" stop-color="rgb(234, 222, 230)"/><stop offset="0.65" stop-color="rgb(227, 210, 222)"/><stop offset="0.7" stop-color="rgb(221, 198, 214)"/><stop offset="0.75" stop-color="rgb(214, 186, 206)"/><stop offset="0.8" stop-color="rgb(202, 159, 189)"/><stop offset="0.85" stop-color="rgb(190, 131, 172)"/><stop offset="0.9" stop-color="rgb(177, 104, 155)"/><stop offset="0.95" stop-color="rgb(164, 75, 138)"/><stop offset="1" stop-color="rgb(150, 42, 120)"/></linearGradient></defs></svg>